# Blender 5.1.1
# www.blender.org
mtllib flywheel.mtl
o Cube
v 0.000000 0.000000 1.000000
v 0.000000 0.375000 1.000000
v 0.000000 0.000000 0.000000
v 0.000000 0.375000 0.000000
v 1.000000 0.000000 1.000000
v 1.000000 0.375000 1.000000
v 1.000000 0.000000 0.000000
v 1.000000 0.375000 0.000000
v -0.125000 0.000000 0.000000
v -0.125000 0.000000 1.000000
v -0.125000 0.375000 1.000000
v -0.125000 0.375000 0.000000
v 0.000000 0.000000 1.125000
v 0.000000 0.375000 1.125000
v 1.000000 0.375000 1.125000
v 1.000000 0.000000 1.125000
v 1.125000 0.375000 0.000000
v 1.125000 0.000000 0.000000
v 1.125000 0.000000 1.000000
v 1.125000 0.375000 1.000000
v 0.000000 0.375000 -0.125000
v 0.000000 0.000000 -0.125000
v 1.000000 0.000000 -0.125000
v 1.000000 0.375000 -0.125000
v 0.500000 0.062500 0.500000
v 0.500000 0.312500 0.500000
v 0.000012 0.062500 -0.707077
v 0.000012 0.312500 -0.707077
v 0.999988 0.062500 -0.707077
v 0.999988 0.312500 -0.707077
v 1.707077 0.062500 0.000012
v 1.707077 0.312500 0.000012
v 1.707077 0.062500 0.999988
v 1.707077 0.312500 0.999988
v 0.999988 0.062500 1.707077
v 0.999988 0.312500 1.707077
v 0.000012 0.062500 1.707077
v 0.000012 0.312500 1.707077
v -0.707077 0.062500 0.999988
v -0.707077 0.312500 0.999988
v -0.707077 0.062500 0.000012
v -0.707077 0.312500 0.000012
vn -0.0000 1.0000 -0.0000
vn -0.0000 -0.0000 1.0000
vn -0.0000 -1.0000 -0.0000
vn -1.0000 -0.0000 -0.0000
vn -0.0000 -0.0000 -1.0000
vn 1.0000 -0.0000 -0.0000
vn 0.7071 -0.0000 -0.7071
vn 0.7071 -0.0000 0.7071
vn -0.7071 -0.0000 0.7071
vn -0.7071 -0.0000 -0.7071
vt 0.000001 0.124985
vt 0.499997 0.124985
vt 0.499997 0.187485
vt 0.000001 0.187485
vt 0.000000 0.124985
vt 0.499998 0.124985
vt 0.499998 0.187485
vt 0.000000 0.187485
vt 0.562500 0.187500
vt 0.562500 0.375000
vt 0.500000 0.375000
vt 0.500000 0.187500
vt 0.000000 0.124985
vt 0.499998 0.124985
vt 0.499998 0.187484
vt 0.000000 0.187484
vt 0.000002 0.187501
vt 0.499999 0.187502
vt 0.499998 0.687499
vt 0.000001 0.687498
vt 0.499999 0.687499
vt 0.000001 0.687499
vt 0.000001 0.187501
vt 0.499999 0.187501
vt 0.499999 0.687500
vt 0.499999 0.874999
vt 0.000001 0.874999
vt 0.000001 0.687500
vt 0.500000 0.374999
vt 0.500000 0.187500
vt 0.562500 0.187500
vt 0.562500 0.374999
vt 0.500000 0.375000
vt 0.500000 0.187500
vt 0.562500 0.375000
vt 0.499998 0.187484
vt 0.000000 0.187484
vt 0.000000 0.124985
vt 0.499998 0.124985
vt 0.499999 0.687501
vt 0.499999 0.875000
vt 0.000001 0.875000
vt 0.000001 0.687501
vt 0.499997 0.187485
vt 0.000001 0.187485
vt 0.000001 0.124985
vt 0.499997 0.124985
vt 0.000001 0.124985
vt 0.499997 0.124985
vt 0.499997 0.187485
vt 0.000001 0.187485
vt 0.500000 0.374999
vt 0.500000 0.187501
vt 0.562500 0.187501
vt 0.562500 0.374999
vt 0.499999 0.687501
vt 0.499999 0.875000
vt 0.000001 0.875000
vt 0.000001 0.687501
vt 0.500000 0.374999
vt 0.500000 0.187500
vt 0.562500 0.187500
vt 0.562500 0.374999
vt 0.500000 0.374999
vt 0.500221 0.187705
vt -0.000198 0.187753
vt 0.000001 0.124985
vt 0.499998 0.124985
vt 0.749642 0.394870
vt 0.999635 0.998406
vt 0.499650 0.998406
vt 0.749642 0.394870
vt 0.499650 0.998406
vt 0.499993 0.875000
vt 0.499993 1.000000
vt 0.000008 0.999999
vt 0.000008 0.875000
vt 0.999635 0.998406
vt 0.499649 0.998406
vt 0.749642 0.394870
vt 0.999635 0.998406
vt 0.499649 0.998406
vt 0.499992 0.875000
vt 0.499992 0.999999
vt 0.000008 0.875000
vt 0.749642 0.394870
vt 0.999635 0.998406
vt 0.499649 0.998406
vt 0.499992 0.875000
vt 0.499992 1.000000
vt 0.000008 1.000000
vt 0.000008 0.875000
vt 0.749642 0.394870
vt 0.999635 0.998406
vt 0.499649 0.998406
vt 0.999635 0.998406
vt 0.499650 0.998406
vt 0.749642 0.394870
vt 0.999635 0.998405
vt 0.999635 0.998406
vt 0.499650 0.998406
vt 0.499993 0.875000
vt 0.499993 0.999999
vt 0.000007 0.999999
vt 0.000007 0.875000
vt 0.499993 0.875000
vt 0.499993 0.999999
vt 0.000007 0.999999
vt 0.000007 0.875000
vt 0.749642 0.394870
vt 0.999635 0.998405
vt 0.499649 0.998405
s 0
usemtl Material
f 2/1/1 4/2/1 12/3/1 11/4/1
f 4/5/1 8/6/1 24/7/1 21/8/1
f 6/9/2 5/10/2 19/11/2 20/12/2
f 6/13/1 2/14/1 14/15/1 15/16/1
f 3/17/3 7/18/3 5/19/3 1/20/3
f 8/21/1 4/22/1 2/23/1 6/24/1
f 10/25/4 11/26/4 12/27/4 9/28/4
f 3/3/3 1/4/3 10/1/3 9/2/3
f 4/9/5 3/10/5 9/11/5 12/12/5
f 1/29/2 2/30/2 11/31/2 10/32/2
f 16/25/2 15/26/2 14/27/2 13/28/2
f 5/33/6 6/34/6 15/31/6 16/35/6
f 2/9/4 1/10/4 13/11/4 14/12/4
f 1/36/3 5/37/3 16/38/3 13/39/3
f 18/40/6 17/41/6 20/42/6 19/43/6
f 5/44/3 7/45/3 18/46/3 19/47/3
f 8/48/1 6/49/1 20/50/1 17/51/1
f 7/52/5 8/53/5 17/54/5 18/55/5
f 22/56/5 21/57/5 24/58/5 23/59/5
f 3/60/4 4/61/4 21/9/4 22/55/4
f 8/62/6 7/63/6 23/64/6 24/61/6
f 7/65/3 3/66/3 22/67/3 23/68/3
f 25/69/3 27/70/3 29/71/3
f 26/72/1 30/70/1 28/73/1
f 27/74/5 28/75/5 30/76/5 29/77/5
f 25/69/3 29/78/3 31/79/3
f 26/80/1 32/81/1 30/82/1
f 29/83/7 30/84/7 32/76/7 31/85/7
f 25/69/3 31/78/3 33/79/3
f 26/86/1 34/87/1 32/88/1
f 31/89/6 32/90/6 34/91/6 33/92/6
f 25/93/3 33/94/3 35/95/3
f 26/69/1 36/78/1 34/79/1
f 33/89/8 34/90/8 36/91/8 35/92/8
f 25/69/3 35/78/3 37/79/3
f 26/69/1 38/96/1 36/97/1
f 35/89/2 36/90/2 38/91/2 37/92/2
f 25/98/3 37/99/3 39/82/3
f 26/69/1 40/100/1 38/101/1
f 37/102/9 38/103/9 40/104/9 39/105/9
f 25/69/3 39/81/3 41/101/3
f 26/86/1 42/78/1 40/79/1
f 39/106/4 40/107/4 42/108/4 41/109/4
f 25/93/3 41/70/3 27/71/3
f 26/110/1 28/111/1 42/112/1
f 41/89/10 42/90/10 28/91/10 27/92/10
